<?xml version="1.0" encoding="UTF-8" standalone="no"?>
<!-- Created with Inkscape (http://www.inkscape.org/) -->

<svg
   width="82.488899mm"
   height="99.709778mm"
   viewBox="0 0 82.488899 99.709778"
   version="1.1"
   id="svg5"
   xml:space="preserve"
   xmlns="http://www.w3.org/2000/svg"
   xmlns:svg="http://www.w3.org/2000/svg"><defs
     id="defs2" /><g
     id="layer1"
     transform="translate(-8.7407133,-0.12759623)"><path
       style="fill:var(--fill, #e00000);fill-opacity:1;stroke-width:0.195084"
       d="M 37.124483,99.74117 C 10.236329,96.725235 -2.7250869,39.084464 21.645205,30.903203 26.052891,29.423516 31.473565,29.506373 42.294198,31.218841 47.936566,32.111797 51.609555,32.186036 55.950049,31.494853 70.324752,29.205818 75.261801,29.277016 80.545693,31.849544 97.405885,40.058138 93.520739,79.912601 74.44476,94.433908 67.801126,99.491276 64.035642,100.41878 54.486922,99.349887 52.072098,99.07957 47.730442,99.119831 44.514111,99.442371 40.365073,99.858443 38.751642,99.923683 37.124483,99.74117 Z M 42.099115,25.022937 C 28.41603,23.748337 22.106847,16.692354 22.103597,2.6606064 L 22.103047,0.28797982 22.848356,0.16206071 C 23.258275,0.09280521 24.857783,0.13125974 26.402818,0.24751522 40.164252,1.2829891 46.23553,7.5930327 46.988996,21.643286 47.201988,25.615074 47.350907,25.512148 42.099115,25.022937 Z M 53.175762,22.767775 C 53.566994,14.544127 57.794409,10.381136 66.266387,9.8766408 L 68.389215,9.7502292 68.248478,11.488486 C 67.519386,20.493603 63.634798,24.505049 55.190443,24.972953 L 53.065251,25.090711 Z"
       id="path353" /></g></svg>
