<?xml version="1.0" encoding="UTF-8" standalone="no"?>
<!-- Created with Inkscape (http://www.inkscape.org/) -->

<svg
   width="92.022629mm"
   height="99.980194mm"
   viewBox="0 0 92.022629 99.980194"
   version="1.1"
   id="svg5"
   xml:space="preserve"
   xmlns="http://www.w3.org/2000/svg"
   xmlns:svg="http://www.w3.org/2000/svg"><defs
     id="defs2" /><path
     style="fill:var(--fill, #ffd400);fill-opacity:1;stroke-width:0.195312"
     d="M 30.734168,99.785965 C 20.574406,98.949168 11.102983,95.467643 3.5660642,89.799455 1.6596172,88.365701 0.81942093,87.307793 0.30903383,85.698465 -0.68833557,82.553609 0.79247423,79.182549 3.8280486,77.687438 L 5.1206748,77.050781 11.668359,76.923279 C 18.276068,76.794609 20.684465,76.591062 25.344949,75.767398 34.982369,74.064143 43.935172,70.347193 50.873095,65.168836 53.58466,63.144967 58.260754,58.459133 59.968297,56.054687 61.500025,53.897812 63.907123,49.189391 64.905373,46.397482 67.228892,39.899053 68.297457,33.090008 68.431926,23.925781 L 68.515035,18.261719 75.10382,16.569987 C 78.727652,15.639534 81.88475,14.870491 82.119594,14.861002 82.461004,14.847208 82.806396,15.274965 83.842879,16.995236 87.964697,23.836291 90.552717,31.252465 91.680002,39.453125 92.089236,42.430184 92.143961,49.737998 91.778726,52.636719 90.230051,64.927965 85.710047,74.769928 77.884521,82.890295 71.597662,89.414023 63.117142,94.469639 53.665262,97.328477 46.373375,99.533998 38.247728,100.40481 30.734168,99.785965 Z M 67.727761,12.199955 C 67.727761,12.142353 67.376199,9.443107 66.946511,6.2016316 66.516824,2.9601561 66.165261,0.23873088 66.165261,0.15401992 66.165261,0.06930896 68.622476,0 71.62574,0 H 77.08622 L 77.475256,1.3183594 C 78.533857,4.9057459 79.667078,9.2195377 79.575049,9.3115672 79.479156,9.40746 68.199945,12.287636 67.874246,12.299398 67.793679,12.302307 67.727761,12.257558 67.727761,12.199955 Z"
     id="path1716" /></svg>
