<?xml version="1.0" encoding="UTF-8" standalone="no"?>
<!-- Created with Inkscape (http://www.inkscape.org/) -->

<svg
   width="88.670616mm"
   height="99.608253mm"
   viewBox="0 0 88.670616 99.608253"
   version="1.1"
   id="svg5"
   xml:space="preserve"
   xmlns="http://www.w3.org/2000/svg"
   xmlns:svg="http://www.w3.org/2000/svg"><defs
     id="defs2" /><g
     id="layer1"
     transform="translate(-5.722821,-0.34237604)"><path
       style="fill:var(--fill, #ff712f);fill-opacity:1;stroke-width:0.195312"
       d="M 8.8870945,99.777551 C 5.0377691,98.879367 4.6632584,95.480535 7.9677479,91.434115 L 9.7116352,89.298689 11.397737,90.984791 13.083839,92.670893 15.13567,90.626045 C 17.599582,88.17052 17.573346,88.578391 15.407295,86.403295 14.097324,85.087855 13.671697,84.541457 13.795966,84.334758 14.151011,83.744199 36.167373,56.835938 36.295523,56.835938 36.369764,56.835938 37.790686,58.198242 39.453125,59.863281 43.042133,63.4579 42.422846,63.347406 44.922572,60.839145 L 46.967072,58.787662 43.566451,55.382873 C 40.992934,52.806197 40.214215,51.915668 40.364756,51.721463 43.818326,47.266205 55.381912,33.361502 56.124369,32.771217 67.832658,23.462648 82.378047,40.007965 71.742795,50.537109 69.736207,52.52368 70.519213,52.847516 65.723377,48.047598 L 61.626023,43.946756 59.523156,46.043104 57.420287,48.139453 61.333771,52.056432 65.247254,55.973412 56.507441,63.094127 C 51.700545,67.010521 45.405207,72.138973 42.517803,74.490688 L 37.267977,78.766531 34.648824,76.15277 32.02967,73.539008 29.932885,75.635793 27.8361,77.732578 30.237047,80.139303 32.637994,82.546029 22.463113,90.833541 C 10.707957,100.4082 10.938609,100.25624 8.8870945,99.777551 Z M 84.071701,35.283813 C 82.749662,34.851367 80.959316,33.808807 79.568072,32.661244 L 78.248441,31.572752 79.114455,30.81875 C 84.001812,26.563531 88.048596,26.480646 93.143982,30.531402 L 94.393436,31.524699 93.632264,32.189105 C 90.395641,35.014275 86.802939,36.177215 84.071701,35.283813 Z M 72.517053,25.841568 C 64.821385,17.294114 64.801422,9.8943895 72.451951,1.7089844 74.176705,-0.13635424 73.899369,-0.15302479 75.70123,1.9042969 83.213975,10.482164 82.967828,18.484404 74.949904,26.32985 L 73.890229,27.36673 Z"
       id="path9841" /></g></svg>
