<?xml version="1.0" encoding="UTF-8" standalone="no"?>
<!-- Created with Inkscape (http://www.inkscape.org/) -->

<svg
   width="73.496193mm"
   height="99.902824mm"
   viewBox="0 0 73.496193 99.902824"
   version="1.1"
   id="svg5"
   xml:space="preserve"
   xmlns="http://www.w3.org/2000/svg"
   xmlns:svg="http://www.w3.org/2000/svg"><defs
     id="defs2" /><g
     id="layer1"
     transform="translate(-13.278816,-0.02483742)"><path
       style="fill:var(--fill, #e00000);fill-opacity:1;stroke-width:0.195312"
       d="M 25.216131,99.782328 C 11.886877,97.779018 8.7869242,79.774842 20.700229,73.554484 32.091279,67.606811 44.848416,78.959482 40.242703,90.945479 37.949885,96.912357 31.471092,100.72241 25.216131,99.782328 Z M 70.92993,99.797201 C 59.496162,98.246131 54.776896,84.179346 62.971107,76.074219 69.86882,69.251496 81.127418,71.118006 85.355107,79.785156 90.216469,89.751396 81.902275,101.28568 70.92993,99.797201 Z M 37.402344,68.750582 C 36.757812,68.34168 35.651475,67.770533 34.943814,67.481367 L 33.657158,66.955609 36.858318,59.210227 C 38.618955,54.950266 41.432117,48.125 43.109787,44.042969 44.787459,39.960937 46.243822,36.51123 46.346152,36.376953 46.482967,36.197424 47.471412,36.132812 50.081053,36.132812 H 53.629902 L 56.100373,42.138672 C 57.459133,45.441895 60.318063,52.372557 62.453551,57.540145 L 66.336258,66.935756 65.052895,67.48784 C 64.347045,67.791486 63.207707,68.377613 62.521035,68.790344 61.834361,69.203076 61.252018,69.516652 61.226939,69.48718 61.201861,69.457707 58.689531,63.391113 55.643982,56.005859 52.598436,48.620605 50.059289,42.578125 50.001436,42.578125 49.943584,42.578125 47.394746,48.642578 44.337352,56.054687 41.279959,63.466797 38.732502,69.522877 38.676338,69.512645 38.620172,69.502412 38.046875,69.159484 37.402344,68.750582 Z M 41.503906,30.136221 C 25.106791,29.014473 17.1875,20.221615 17.1875,3.1375014 V 0.2403216 L 18.212891,0.11262119 C 21.381072,-0.28193873 28.548715,0.70220885 32.617187,2.0903916 42.359217,5.4144201 47.265625,14.043363 47.265625,27.852725 V 30.273437 L 44.873047,30.238232 C 43.557129,30.218871 42.041016,30.172965 41.503906,30.136221 Z M 53.321098,28.173828 C 53.3255,17.502966 58.77134,11.956702 69.80517,11.385782 L 72.129871,11.265496 71.991176,13.457378 C 71.277641,24.73376 65.862461,30.078125 55.150197,30.078125 H 53.320312 Z"
       id="path6902" /></g></svg>
