<?xml version="1.0" encoding="UTF-8" standalone="no"?>
<!-- Created with Inkscape (http://www.inkscape.org/) -->

<svg
   width="100mm"
   height="100mm"
   viewBox="0 0 100 100"
   version="1.1"
   id="svg5"
   xml:space="preserve"
   xmlns="http://www.w3.org/2000/svg"
   xmlns:svg="http://www.w3.org/2000/svg"><defs
     id="defs2" /><g
     id="layer1"><path
       style="fill:var(--fill, #62b400);stroke-width:0.195312;fill-opacity:1"
       d="M 47.780094,99.690145 C 42.803121,98.48548 39.541699,93.289008 40.692578,88.397504 L 40.917969,87.439537 42.46084,86.781762 C 44.610498,85.865295 46.437213,84.597391 47.928363,82.986811 L 49.19993,81.6134 49.789553,82.261777 C 50.113844,82.618387 50.38175,82.968941 50.3849,83.040787 50.388049,83.112635 51.071777,83.720016 51.904297,84.390521 53.627121,85.778072 55.937049,86.957199 57.850594,87.425875 L 59.158221,87.746145 59.364266,88.706904 C 60.213695,92.66765 58.011764,97.069227 54.260461,98.909213 52.025984,100.00521 50.060365,100.24208 47.780094,99.690145 Z M 34.440502,81.753395 C 30.010877,80.679113 26.866512,76.377957 27.212389,71.866102 27.274525,71.055545 27.375592,70.261471 27.43698,70.101492 27.499428,69.938758 28.13924,69.658473 28.889396,69.465227 31.982297,68.668477 34.972352,66.758576 36.953734,64.314127 L 37.462184,63.686846 39.190076,65.389445 C 40.983133,67.156256 42.659809,68.272828 44.572678,68.973959 45.498426,69.313277 45.721396,69.486932 45.882619,69.994174 46.273777,71.224848 46.327896,72.919637 46.022291,74.368148 44.902318,79.676584 39.660189,83.019281 34.440502,81.753395 Z M 59.044527,81.657414 C 55.8545,80.744738 53.285453,78.111352 52.447834,74.895516 52.107998,73.590801 52.058143,71.524262 52.341863,70.50301 52.523543,69.849057 52.603625,69.796449 53.942455,69.451559 54.717594,69.251879 56.147154,68.684463 57.119258,68.190637 58.533627,67.472141 59.251363,66.93398 60.712018,65.496777 L 62.537316,63.700783 63.089947,64.330195 C 63.393893,64.676371 63.802979,65.143625 63.999023,65.368535 65.128625,66.664461 68.055311,68.507898 69.966918,69.127545 70.585729,69.328133 70.728102,69.484611 70.911504,70.165711 71.253428,71.435521 71.167395,73.95693 70.7349,75.341434 69.21585,80.204227 63.935883,83.056846 59.044527,81.657414 Z M 22.477096,63.75232 C 18.004077,62.549691 14.921667,57.821314 15.621299,53.235617 15.87227,51.590645 16.842169,49.462572 17.889251,48.259465 18.905242,47.09208 20.695783,45.971236 22.344836,45.470352 L 23.709799,45.055756 24.394857,45.916551 C 25.568506,47.391264 27.107994,48.775168 28.630426,49.724059 30.069898,50.621242 32.898123,51.750072 33.719338,51.755199 34.248195,51.758502 34.38051,52.103494 34.514553,53.828623 34.870828,58.413912 31.871652,62.607393 27.403652,63.771158 26.009875,64.134191 23.866941,64.125998 22.477096,63.75232 Z M 47.481373,63.753414 C 44.517273,62.956322 42.189051,60.783053 41.012262,57.714844 40.662746,56.803564 40.559742,56.130357 40.549061,54.6875 40.531055,52.25541 40.802018,51.465572 41.759436,51.15934 43.7111,50.535094 45.615414,49.318387 47.414486,47.546207 L 49.223502,45.764229 50.126949,46.821725 C 51.959977,48.967307 55.051525,50.860688 57.806383,51.524902 59.1255,51.842949 59.183016,51.881357 59.325041,52.539062 59.406229,52.915039 59.462094,53.969727 59.449182,54.882812 59.363357,60.952611 53.427385,65.352387 47.481373,63.753414 Z M 72.481373,63.753414 C 69.280416,62.892629 66.617139,60.224305 65.787748,57.047107 65.401053,55.565766 65.359951,53.604389 65.689547,52.360795 65.908121,51.536092 65.97518,51.475844 67.244885,50.963432 67.974689,50.668908 69.067979,50.133895 69.674416,49.774514 70.915729,49.038898 73.347941,46.828783 74.048885,45.799494 74.476217,45.17199 74.588797,45.119754 75.516535,45.118521 77.679023,45.11565 80.57527,46.495184 82.110748,48.259465 83.131348,49.432143 84.123326,51.583982 84.369416,53.159062 85.10334,57.856455 82.021912,62.568254 77.434578,63.763104 76.014148,64.133078 73.877668,64.128898 72.481373,63.753414 Z M 33.984375,45.725441 C 32.237576,45.160688 31.231619,44.549133 29.967762,43.283607 27.068262,40.380285 26.369213,36.261311 28.13865,32.50601 30.563432,27.359865 37.204846,25.545096 41.969406,28.726748 43.482217,29.736965 44.410141,30.807961 45.221893,32.480727 46.536096,35.188881 46.539811,37.988102 45.232834,40.722656 44.053121,43.190939 42.07468,44.909371 39.495467,45.706008 37.895098,46.200313 35.479512,46.20883 33.984375,45.725441 Z M 59.082031,45.827895 C 56.618395,45.006531 54.423773,43.251676 53.356871,41.249963 50.382398,35.669281 53.146545,29.215275 59.274039,27.433965 60.813678,26.986379 63.507988,27.123564 65.102389,27.730727 66.687094,28.334197 68.478988,29.75618 69.449268,31.180254 72.917008,36.269838 70.782768,43.310818 65.102389,45.520852 63.693527,46.068988 60.321078,46.240986 59.082031,45.827895 Z M 44.042969,21.156404 C 39.118424,20.909322 34.514891,19.458153 31.788709,17.293504 28.13435,14.39186 26.111695,9.1934553 25.933891,2.2460938 L 25.878906,0.09765625 27.050781,0.03407469 C 29.88024,-0.11944118 34.383498,0.64304937 37.307852,1.7707991 43.440428,4.1357713 46.56792,9.5532746 47.007791,18.573225 L 47.127754,21.03317 46.65958,21.158449 C 46.402084,21.227354 45.97168,21.268311 45.703125,21.249465 45.43457,21.230619 44.6875,21.188742 44.042969,21.156404 Z M 53.01268,19.583318 C 53.68249,12.191698 56.706133,9.2016105 64.24024,8.4803551 L 65.687514,8.3418049 65.563662,10.079105 C 65.218799,14.916678 63.487637,18.049975 60.285588,19.632102 58.7166,20.407336 55.799717,21.087227 54.025795,21.091184 L 52.875809,21.09375 Z"
       id="path302" /></g></svg>
