<?xml version="1.0" encoding="UTF-8" standalone="no"?>
<!-- Created with Inkscape (http://www.inkscape.org/) -->

<svg
   width="100mm"
   height="100mm"
   viewBox="0 0 100 100"
   version="1.1"
   id="svg5"
   xml:space="preserve"
   xmlns="http://www.w3.org/2000/svg"
   xmlns:svg="http://www.w3.org/2000/svg"><defs
     id="defs2" /><path
     style="fill:var(--fill, #62b400);stroke-width:0.195312"
     d="M 45.453172,99.8233 C 37.065899,98.9761 29.500791,96.310947 22.503953,91.738377 16.87494,88.059715 11.158158,82.183568 7.5668726,76.384906 -2.4441184,60.220678 -2.4441184,39.830334 7.5668726,23.666106 9.5703416,20.431207 11.552504,17.982069 14.776041,14.758531 19.158388,10.376184 22.657172,7.8378415 27.972703,5.1844485 43.555268,-2.5940156 62.609875,-1.4675181 77.253399,8.0978945 80.184768,10.012719 82.505506,11.899637 85.168676,14.533555 93.142638,22.419932 97.92019,31.94975 99.583655,43.287225 100.06061,46.537885 100.06061,53.513127 99.583655,56.763787 97.92019,68.101262 93.142638,77.63108 85.168676,85.517457 77.419471,93.181547 68.141723,97.837547 57.380496,99.46284 54.432186,99.90813 48.167401,100.09746 45.453172,99.8233 Z M 55.902391,92.277757 C 62.916096,91.340777 69.738539,88.534693 75.628953,84.164186 78.116848,82.318244 82.609703,77.763192 84.450205,75.220818 88.707268,69.340332 91.291135,62.972861 92.336195,55.787225 92.752723,52.92325 92.752723,47.127762 92.336195,44.263787 90.772549,33.512461 85.49637,24.0705 77.159848,17.105042 66.966598,8.5882215 52.7587,5.3624775 39.777647,8.6178315 34.209414,10.014219 29.239709,12.378725 24.457078,15.907114 22.191975,17.578195 17.738773,21.989315 16.040397,24.244256 11.646274,30.078354 8.8205576,36.901723 7.7498386,44.263787 7.3333096,47.127762 7.3333096,52.92325 7.7498386,55.787225 8.8205576,63.149289 11.646274,69.972658 16.040397,75.806756 17.714954,78.030074 22.163743,82.433402 24.457078,84.137432 33.665875,90.979897 44.541969,93.795417 55.902391,92.277757 Z M 44.671922,86.437318 C 42.195069,86.058139 40.520229,85.635631 37.933641,84.737473 25.022541,80.254266 15.624306,68.861096 13.629093,55.273877 13.231743,52.567957 13.231743,47.483055 13.629093,44.777135 15.999009,28.638221 28.655731,15.981499 44.794645,13.611583 47.492381,13.215435 52.58285,13.214461 55.291387,13.609575 71.411512,15.961137 84.086893,28.637334 86.456939,44.777135 87.065991,48.924725 86.777682,54.876492 85.775852,58.837293 82.091807,73.402408 70.073641,84.285039 55.291387,86.441438 52.724332,86.815912 47.13077,86.813742 44.671922,86.437318 Z M 53.319588,75.464959 53.373502,72.486443 H 50.048104 46.722703 V 75.383578 C 46.722703,76.977004 46.783395,78.341404 46.857571,78.415582 46.931748,78.48976 48.403916,78.526381 50.129055,78.496963 L 53.265672,78.443475 Z M 34.372537,70.285985 36.37086,68.280838 34.072866,65.98883 31.774871,63.696824 29.730641,65.748037 27.686411,67.799248 29.925981,70.04519 C 31.157745,71.280457 32.2125,72.291131 32.269883,72.291131 32.327264,72.291131 33.273459,71.388815 34.372537,70.285985 Z M 70.160051,70.04519 72.399621,67.799248 70.355391,65.748037 68.311161,63.696824 66.013166,65.98883 63.715172,68.280838 65.713495,70.285985 C 66.812573,71.388815 67.758768,72.291131 67.816149,72.291131 67.873532,72.291131 68.928287,71.280457 70.160051,70.04519 Z M 54.394198,63.452281 C 58.646707,62.057848 62.037483,58.671942 63.482848,54.376688 63.940887,53.01551 63.994045,52.563041 63.994045,50.025506 63.994045,47.487971 63.940887,47.035502 63.482848,45.674324 62.761989,43.532115 61.524291,41.557883 59.904723,39.966912 58.262303,38.353494 56.587719,37.322254 54.437547,36.600123 53.028032,36.126742 52.597762,36.075319 50.043016,36.074918 47.504791,36.074522 47.053381,36.12751 45.691834,36.585674 41.395641,38.031356 38.006102,41.426408 36.617948,45.674324 35.894381,47.888518 35.781723,51.103285 36.348631,53.359395 37.634805,58.477953 41.446465,62.350084 46.527391,63.699643 48.652366,64.264063 52.264989,64.150469 54.394198,63.452281 Z M 47.413354,57.81502 C 44.039174,56.654793 41.839891,53.581059 41.839891,50.025506 41.839891,45.477791 45.47676,41.822381 50.001405,41.822381 52.218479,41.822381 53.944123,42.482809 55.57712,43.956285 60.276168,48.196299 58.469768,56.134264 52.400145,57.917039 50.927495,58.349588 48.844032,58.306965 47.413354,57.81502 Z M 27.582078,50.025506 V 46.705193 H 24.652391 21.722703 V 50.025506 53.345818 H 24.652391 27.582078 Z M 78.363328,50.025506 V 46.705193 H 75.433641 72.503953 V 50.025506 53.345818 H 75.433641 78.363328 Z M 34.321272,29.71619 32.269483,27.664399 29.976875,29.957006 27.684268,32.249613 29.729571,34.301901 31.774871,36.354188 34.073967,34.061082 36.373061,31.767979 Z M 70.111516,29.959365 67.818909,27.666758 65.766621,29.712061 63.714334,31.757361 66.00744,34.056457 68.300543,36.355551 70.352332,34.303762 72.404123,32.251973 Z M 53.319588,24.586053 53.265672,21.607537 H 50.043016 46.82036 L 46.766444,24.586053 46.71253,27.564568 H 50.043016 53.373502 Z"
     id="path288" /></svg>
