<?xml version="1.0" encoding="UTF-8" standalone="no"?>
<!-- Created with Inkscape (http://www.inkscape.org/) -->

<svg
   width="71.926826mm"
   height="100.13499mm"
   viewBox="0 0 71.926826 100.13499"
   version="1.1"
   id="svg5"
   xml:space="preserve"
   xmlns="http://www.w3.org/2000/svg"
   xmlns:svg="http://www.w3.org/2000/svg"><defs
     id="defs2" /><g
     id="layer1"
     transform="translate(-14.187748,0.04683536)"
     ><path
       style="fill:var(--fill, #ff712f);fill-opacity:1;stroke-width:0.195312"
       d="M 47.156691,99.788146 C 9.625216,97.075971 1.5384451,44.527105 36.472195,30.358937 72.503523,15.745621 102.95272,61.696787 75.528797,89.299615 68.984969,95.886133 56.683307,100.9316 49.511719,99.970393 49.404297,99.955996 48.344535,99.873984 47.156691,99.788146 Z M 41.699219,21.547625 C 30.732406,20.171311 25.394559,13.734112 25.391176,1.8808792 L 25.390625,-0.04683536 27.685547,0.08734839 C 40.848227,0.8569684 46.313854,6.2441758 46.993508,19.118285 L 47.12873,21.679687 44.706943,21.650424 C 43.374961,21.634328 42.021484,21.588068 41.699219,21.547625 Z M 53.183729,19.707992 C 53.58557,12.782433 57.132721,9.2645486 64.137068,8.8450232 L 66.067107,8.7294236 65.930758,10.272915 C 65.281217,17.625801 61.913098,21.07232 54.85642,21.605029 L 53.065812,21.740203 Z"
       id="path12054" /></g></svg>
