<?xml version="1.0" encoding="UTF-8" standalone="no"?>
<!-- Created with Inkscape (http://www.inkscape.org/) -->

<svg
   width="56.032017mm"
   height="99.979172mm"
   viewBox="0 0 56.032017 99.979172"
   version="1.1"
   id="svg5"
   xml:space="preserve"
   xmlns="http://www.w3.org/2000/svg"
   xmlns:svg="http://www.w3.org/2000/svg"><defs
     id="defs2" /><g
     id="layer1"
     transform="translate(-21.917088,0.03912405)"
     ><path
       style="fill:var(--fill, #ffd400);fill-opacity:1;stroke-width:0.195312"
       d="M 47.265625,99.798869 C 25.467855,97.897959 14.879419,77.914543 27.036707,61.621094 34.039594,52.23568 35.52823,48.530662 35.747377,39.941406 36.044643,28.290357 40.236937,22.751084 49.225617,22.132627 58.607813,21.487096 63.912281,27.810812 64.245914,40.039062 64.477086,48.511973 65.900365,52.070191 72.761707,61.328676 86.357895,79.674955 71.613574,101.92217 47.265625,99.798869 Z M 42.1875,15.684492 C 35.035686,14.4147 31.547814,10.160615 31.113455,2.1777035 L 30.992836,-0.03912405 32.537434,0.08898987 C 42.711932,0.93289562 47.070312,5.5312303 47.070312,15.421989 V 16.015625 L 45.458984,15.997437 C 44.572754,15.987434 43.100586,15.846608 42.1875,15.684492 Z M 53.176016,14.622048 C 53.531438,10.007497 55.914344,7.6459316 60.80477,7.0616172 L 62.136883,6.9024547 62.016529,7.8945867 C 61.371805,13.209368 59.369844,15.245156 54.120502,15.924028 L 53.065225,16.060502 Z"
       id="path3565" /></g></svg>
