<?xml version="1.0" encoding="UTF-8" standalone="no"?>
<!-- Created with Inkscape (http://www.inkscape.org/) -->

<svg
   width="62.437954mm"
   height="99.806885mm"
   viewBox="0 0 62.437954 99.806885"
   version="1.1"
   id="svg5"
   xml:space="preserve"
   xmlns="http://www.w3.org/2000/svg"
   xmlns:svg="http://www.w3.org/2000/svg"><defs
     id="defs2" /><g
     id="layer1"
     transform="translate(-18.781022,-0.09765625)"
     ><path
       style="fill:var(--fill, #e00000);fill-opacity:1;stroke-width:0.195312"
       d="M 48.339844,99.799229 C 45.588328,99.428199 42.999047,98.070498 41.042775,95.972975 39.682508,94.514492 21.716969,62.238354 20.420129,58.923191 15.47763,46.28849 22.164816,31.727582 34.410143,28.460854 36.951326,27.782934 63.048674,27.782934 65.589857,28.460854 77.835184,31.727582 84.522369,46.28849 79.579871,58.923191 78.289035,62.223004 60.318268,94.51349 58.960391,95.972975 56.267586,98.867277 52.226158,100.32328 48.339844,99.799229 Z M 53.080783,80.712891 53.134225,77.34375 H 50.102268 47.070312 V 80.766807 84.189861 L 50.048828,84.135947 53.027344,84.082031 Z M 45.268283,62.451172 45.214844,59.082031 42.236328,59.028115 39.257812,58.974201 V 62.397256 65.820312 H 42.289768 45.321725 Z M 60.742187,62.402344 V 58.984375 H 57.714844 54.6875 V 62.402344 65.820312 H 57.714844 60.742187 Z M 37.5,44.140625 V 40.820312 H 34.570312 31.640625 V 44.140625 47.460937 H 34.570312 37.5 Z M 53.125,44.140625 V 40.820312 H 50.097656 47.070312 V 44.140625 47.460937 H 50.097656 53.125 Z M 68.554687,44.140625 V 40.820312 H 65.527344 62.5 V 44.140625 47.460937 H 65.527344 68.554687 Z M 42.871094,21.746805 C 30.679947,20.297275 25.619965,14.751007 25.347449,2.5390625 L 25.292969,0.09765625 27.636719,0.15707699 C 40.752707,0.48960469 47.070312,7.1438344 47.070312,20.626162 V 21.875 L 45.263672,21.845736 C 44.27002,21.829641 43.193359,21.785121 42.871094,21.746805 Z M 53.177893,19.764078 C 53.530367,12.893719 57.125285,9.3482799 64.240469,8.8537635 L 66.078594,8.7260109 65.954516,10.466521 C 65.424676,17.898877 62.107264,21.090559 54.220924,21.75541 L 53.070754,21.852375 Z"
       id="path17183" /></g></svg>
