<?xml version="1.0" encoding="UTF-8" standalone="no"?>
<!-- Created with Inkscape (http://www.inkscape.org/) -->

<svg
   width="100mm"
   height="100mm"
   viewBox="0 0 100 100"
   version="1.1"
   id="svg5"
   xml:space="preserve"
   xmlns="http://www.w3.org/2000/svg"
   xmlns:svg="http://www.w3.org/2000/svg"><defs
     id="defs2" /><path
     style="fill:var(--fill, #62b400);stroke-width:0.214478"
     d="M 81.198655,86.527237 C 63.794922,101.74281 38.19777,104.34405 18.158457,92.933508 13.07992,90.041747 9.7149872,87.35772 3.9814172,81.625224 L 0,77.644547 2.7827297,74.862161 5.5654586,72.079776 10.166749,76.502197 C 15.08109,81.225497 17.316324,83.051359 20.712786,85.116754 28.365217,89.770212 37.569496,92.211042 46.453292,91.942725 58.493112,91.579085 69.798015,86.712875 78.260787,78.251146 88.573889,67.939317 93.445247,53.609785 91.58165,39.066639 90.765802,32.699866 88.499437,26.254313 85.127238,20.710234 83.061588,17.31419 81.235509,15.079231 76.511625,10.165496 L 72.08866,5.5647727 74.871385,2.7823867 77.654118,0 81.635277,3.9809274 C 85.742605,8.088007 87.76841,10.384053 89.845904,13.286832 98.732764,25.704025 101.99519,41.513411 98.80322,56.693104 96.409717,68.07564 90.1287,78.71995 81.198655,86.527237 Z M 69.758778,77.181005 C 57.361717,86.626687 40.73379,88.157191 26.828684,81.132475 22.317614,78.853526 21.131439,77.94149 15.392115,72.339021 L 10.288608,67.357208 38.828345,38.820986 67.368088,10.284765 72.41944,15.470375 C 77.167323,20.34445 77.553845,20.786193 78.85318,22.823354 87.448631,36.299742 87.769262,52.545424 79.706278,66.047999 77.340686,70.009506 73.436878,74.378549 69.758778,77.181005 Z M 46.713802,67.332381 44.438779,65.057638 41.860426,67.63568 39.282064,70.213722 41.557087,72.488464 43.83211,74.763207 46.410472,72.185166 48.988826,69.607123 Z M 59.605602,54.442173 57.330579,52.16743 54.752218,54.745472 52.173864,57.323514 54.448887,59.598257 56.72391,61.872999 59.302264,59.294957 61.880626,56.716916 Z M 72.497403,41.551965 70.222379,39.277223 67.644018,41.855264 65.065656,44.433306 67.340679,46.708049 69.615702,48.982791 72.194064,46.404749 74.772426,43.826708 Z M 30.030304,63.692793 27.75528,61.418051 25.252755,63.920268 22.75023,66.422484 25.025253,68.697226 27.300276,70.971969 29.802801,68.469752 32.305327,65.967535 Z M 42.922103,50.802585 40.64708,48.527843 38.144549,51.030059 35.642026,53.532276 37.917049,55.807018 40.192072,58.081761 42.694595,55.579544 45.197126,53.077327 Z M 55.813895,37.912377 53.538872,35.637635 51.036349,38.139852 48.533826,40.642068 50.808849,42.91681 53.083872,45.191553 55.586395,42.689336 58.088918,40.18712 Z M 68.705695,25.022169 66.430672,22.747426 63.928149,25.249643 61.425618,27.75186 63.700641,30.026603 65.975664,32.301345 68.478195,29.799128 70.980718,27.296911 Z"
     id="path301" /></svg>
