<?xml version="1.0" encoding="UTF-8" standalone="no"?>
<svg
   class="ionicon"
   viewBox="0 0 415.0513 415.0513"
   fill="currentColor"
   version="1.1"
   id="svg330"
   width="415.0513"
   height="415.0513"
   xmlns="http://www.w3.org/2000/svg"
   xmlns:svg="http://www.w3.org/2000/svg"
   xmlns:rdf="http://www.w3.org/1999/02/22-rdf-syntax-ns#"
   xmlns:cc="http://creativecommons.org/ns#"
   xmlns:dc="http://purl.org/dc/elements/1.1/">
  <defs
     id="defs334" />
  <title
     id="title326">Search</title>
  <path
     d="M 408.69,373.39 314.6,279.3 A 173.81,173.81 0 0 0 349.44,174.72 C 349.44,78.38 271.06,0 174.72,0 78.38,0 0,78.38 0,174.72 0,271.06 78.38,349.44 174.72,349.44 A 173.81,173.81 0 0 0 279.3,314.6 L 373.39,408.69 A 25,25 0 0 0 408.69,373.39 Z M 49.92,174.72 A 124.8,124.8 0 1 1 174.72,299.52 124.95,124.95 0 0 1 49.92,174.72 Z"
     id="path328" />
  <metadata
     id="metadata453">
    <rdf:RDF>
      <cc:Work
         rdf:about="">
        <dc:title>Search</dc:title>
      </cc:Work>
    </rdf:RDF>
  </metadata>
</svg>
